<svg xmlns="http://www.w3.org/2000/svg" width="563.185" height="202.99" viewBox="0 0 563.185 202.99">
  <g id="Grupo_51" data-name="Grupo 51" transform="translate(-177.141 -468.143)">
    <path id="Caminho_705" data-name="Caminho 705" d="M380.814,471.088V598.4a2.944,2.944,0,0,0,2.944,2.945h21.921a2.944,2.944,0,0,0,2.941-2.8l.1-1.977a2.938,2.938,0,0,1,4.749-2.175c7.122,5.665,17.237,9.148,29.823,9.148,29.864,0,51.054-23.164,51.054-55.008,0-32.058-21.19-54.787-51.054-54.787-13.383,0-22.987,3.852-29.893,9.817a2.95,2.95,0,0,1-4.911-2.191V471.088a2.944,2.944,0,0,0-2.945-2.945H383.758a2.944,2.944,0,0,0-2.944,2.945m28,77.327c0-16.794,12.075-29.421,28.656-29.421,16.795,0,28.547,12.406,28.547,29.421,0,16.692-11.752,29.864-28.547,29.864-16.581,0-28.656-13.172-28.656-29.864" fill="#e1edd8"/>
    <path id="Caminho_706" data-name="Caminho 706" d="M618.645,468.143H596.864a2.944,2.944,0,0,0-2.944,2.945v30.277a2.949,2.949,0,0,1-4.911,2.19c-6.906-5.963-16.51-9.816-29.894-9.816-29.864,0-51.054,22.729-51.054,54.786,0,31.846,21.19,55.008,51.054,55.008,12.587,0,22.7-3.483,29.823-9.147a2.938,2.938,0,0,1,4.749,2.175l.1,1.978a2.945,2.945,0,0,0,2.941,2.8h21.921a2.943,2.943,0,0,0,2.944-2.944V471.088a2.943,2.943,0,0,0-2.944-2.945M564.932,578.279c-16.794,0-28.546-13.172-28.546-29.864,0-17.015,11.752-29.422,28.546-29.422,16.581,0,28.656,12.628,28.656,29.422,0,16.692-12.075,29.864-28.656,29.864" fill="#e1edd8"/>
    <path id="Caminho_707" data-name="Caminho 707" d="M698.731,620.574v6.216a.991.991,0,0,1-.991.991h-7.185a.991.991,0,0,0-.991.99V654.2a.991.991,0,0,1-.991.991h-6.888a.991.991,0,0,1-.991-.991V620.574a.991.991,0,0,1,.991-.991H697.74a.991.991,0,0,1,.991.991" fill="#a2bb0c"/>
    <path id="Caminho_708" data-name="Caminho 708" d="M703.6,637.492c0-10.587,7.675-18.2,18.327-18.2s18.394,7.609,18.394,18.2c0,10.52-7.741,18.2-18.394,18.2s-18.327-7.675-18.327-18.2M731,637.359c0-5.888-3.639-9.991-9.065-9.991-5.359,0-9.064,4.1-9.064,9.991,0,5.955,3.705,10.124,9.064,10.124,5.426,0,9.065-4.169,9.065-10.124" fill="#a2bb0c"/>
    <path id="Caminho_709" data-name="Caminho 709" d="M629.91,619.488H622.6a.991.991,0,0,0-.99.991v3.62c-2.358-2.949-6.008-5.012-11.682-5.012-10.024,0-17.137,7.629-17.137,18.39,0,10.688,7.113,18.464,17.137,18.464a15.85,15.85,0,0,0,10-3.068.989.989,0,0,1,1.6.732l.032.657a.991.991,0,0,0,.989.942h7.354a.99.99,0,0,0,.99-.991V620.479a.991.991,0,0,0-.99-.991m-18.027,27.975c-5.638,0-9.582-4.421-9.582-10.024,0-5.711,3.944-9.875,9.582-9.875a9.483,9.483,0,0,1,9.619,9.875c0,5.6-4.053,10.024-9.619,10.024" fill="#a2bb0c"/>
    <path id="Caminho_710" data-name="Caminho 710" d="M673.859,664.115V620.5a.991.991,0,0,0-.991-.991h-7.306a.991.991,0,0,0-.991.991v3.6c-2.357-2.949-6.008-5.012-11.683-5.012-10.023,0-17.136,7.629-17.136,18.39,0,10.688,7.113,18.464,17.136,18.464a16.073,16.073,0,0,0,9.688-2.823,1.188,1.188,0,0,1,.946-.217.971.971,0,0,1,.76.969c-.016,4-.029,6.613-.029,6.613a1.221,1.221,0,0,1-1.221,1.221h-11.46a.991.991,0,0,0-.991.99l-.007,7.448a.991.991,0,0,0,.991.991h14.621c4.906,0,7.673-2.4,7.673-7.018m-9.5-25.174v-3.008a11.247,11.247,0,0,1,0,3.008m-9.518,8.522c-5.637,0-9.582-4.421-9.582-10.024,0-5.711,3.945-9.875,9.582-9.875a9.382,9.382,0,0,1,9.5,8.254.9.9,0,0,1,.011.156c0,.749-.007,1.779-.012,3l-.012.158a9.5,9.5,0,0,1-9.49,8.329" fill="#a2bb0c"/>
    <path id="Caminho_711" data-name="Caminho 711" d="M332.774,571.823V518.814a1.473,1.473,0,0,1,1.473-1.473h26.895a2.945,2.945,0,0,0,2.946-2.945V497.889a2.945,2.945,0,0,0-2.941-2.945l-26.729-.042a1.473,1.473,0,0,1-1.47-1.472l-.006-14.193a11.047,11.047,0,0,0-11.05-11.042l-14.5.007a2.946,2.946,0,0,0-2.945,2.937l-.287,109.341c0,13.761,8.243,20.91,22.858,20.91h34.124a2.946,2.946,0,0,0,2.946-2.948l-.021-22.2a2.945,2.945,0,0,0-2.946-2.943H334.247a1.472,1.472,0,0,1-1.473-1.473" fill="#e1edd8"/>
    <path id="Caminho_712" data-name="Caminho 712" d="M722.768,565.312a2.933,2.933,0,0,0-3.987.591c-6.537,8.4-14.633,12.028-23.991,12.028-16.095,0-28.136-12.7-28.136-29.019,0-16.646,11.711-29.561,28.577-29.561a29.291,29.291,0,0,1,22.29,10.577,2.969,2.969,0,0,0,3.863.608L738.1,519.825a2.935,2.935,0,0,0,.824-4.173,54.108,54.108,0,0,0-44.139-22.14c-31.206,0-56.061,24.084-56.061,54.849,0,30.664,23.871,54.967,55.408,54.967,17.4,0,34.706-7.941,45.152-22.982a2.94,2.94,0,0,0-.757-4.079Z" fill="#e1edd8"/>
    <path id="Caminho_713" data-name="Caminho 713" d="M380.814,471.088V598.4a2.944,2.944,0,0,0,2.944,2.945h21.921a2.944,2.944,0,0,0,2.941-2.8l.1-1.977a2.938,2.938,0,0,1,4.749-2.175c7.122,5.665,17.237,9.148,29.823,9.148,29.864,0,51.054-23.164,51.054-55.008,0-32.058-21.19-54.787-51.054-54.787-13.383,0-22.987,3.852-29.893,9.817a2.95,2.95,0,0,1-4.911-2.191V471.088a2.944,2.944,0,0,0-2.945-2.945H383.758a2.944,2.944,0,0,0-2.944,2.945m28,77.327c0-16.794,12.075-29.421,28.656-29.421,16.795,0,28.547,12.406,28.547,29.421,0,16.692-11.752,29.864-28.547,29.864-16.581,0-28.656-13.172-28.656-29.864" fill="#e1edd8"/>
    <path id="Caminho_714" data-name="Caminho 714" d="M618.645,468.143H596.864a2.944,2.944,0,0,0-2.944,2.945v30.277a2.949,2.949,0,0,1-4.911,2.19c-6.906-5.963-16.51-9.816-29.894-9.816-29.864,0-51.054,22.729-51.054,54.786,0,31.846,21.19,55.008,51.054,55.008,12.587,0,22.7-3.483,29.823-9.147a2.938,2.938,0,0,1,4.749,2.175l.1,1.978a2.945,2.945,0,0,0,2.941,2.8h21.921a2.943,2.943,0,0,0,2.944-2.944V471.088a2.943,2.943,0,0,0-2.944-2.945M564.932,578.279c-16.794,0-28.546-13.172-28.546-29.864,0-17.015,11.752-29.422,28.546-29.422,16.581,0,28.656,12.628,28.656,29.422,0,16.692-12.075,29.864-28.656,29.864" fill="#e1edd8"/>
    <path id="Caminho_715" data-name="Caminho 715" d="M698.731,620.574v6.216a.991.991,0,0,1-.991.991h-7.185a.991.991,0,0,0-.991.99V654.2a.991.991,0,0,1-.991.991h-6.888a.991.991,0,0,1-.991-.991V620.574a.991.991,0,0,1,.991-.991H697.74a.991.991,0,0,1,.991.991" fill="#a2bb0c"/>
    <path id="Caminho_716" data-name="Caminho 716" d="M703.6,637.492c0-10.587,7.675-18.2,18.327-18.2s18.394,7.609,18.394,18.2c0,10.52-7.741,18.2-18.394,18.2s-18.327-7.675-18.327-18.2M731,637.359c0-5.888-3.639-9.991-9.065-9.991-5.359,0-9.064,4.1-9.064,9.991,0,5.955,3.705,10.124,9.064,10.124,5.426,0,9.065-4.169,9.065-10.124" fill="#a2bb0c"/>
    <path id="Caminho_717" data-name="Caminho 717" d="M629.91,619.488H622.6a.991.991,0,0,0-.99.991v3.62c-2.358-2.949-6.008-5.012-11.682-5.012-10.024,0-17.137,7.629-17.137,18.39,0,10.688,7.113,18.464,17.137,18.464a15.85,15.85,0,0,0,10-3.068.989.989,0,0,1,1.6.732l.032.657a.991.991,0,0,0,.989.942h7.354a.99.99,0,0,0,.99-.991V620.479a.991.991,0,0,0-.99-.991m-18.027,27.975c-5.638,0-9.582-4.421-9.582-10.024,0-5.711,3.944-9.875,9.582-9.875a9.483,9.483,0,0,1,9.619,9.875c0,5.6-4.053,10.024-9.619,10.024" fill="#a2bb0c"/>
    <path id="Caminho_718" data-name="Caminho 718" d="M673.859,664.115V620.5a.991.991,0,0,0-.991-.991h-7.306a.991.991,0,0,0-.991.991v3.6c-2.357-2.949-6.008-5.012-11.683-5.012-10.023,0-17.136,7.629-17.136,18.39,0,10.688,7.113,18.464,17.136,18.464a16.073,16.073,0,0,0,9.688-2.823,1.188,1.188,0,0,1,.946-.217.971.971,0,0,1,.76.969c-.016,4-.029,6.613-.029,6.613a1.221,1.221,0,0,1-1.221,1.221h-11.46a.991.991,0,0,0-.991.99l-.007,7.448a.991.991,0,0,0,.991.991h14.621c4.906,0,7.673-2.4,7.673-7.018m-9.5-25.174v-3.008a11.247,11.247,0,0,1,0,3.008m-9.518,8.522c-5.637,0-9.582-4.421-9.582-10.024,0-5.711,3.945-9.875,9.582-9.875a9.382,9.382,0,0,1,9.5,8.254.9.9,0,0,1,.011.156c0,.749-.007,1.779-.012,3l-.012.158a9.5,9.5,0,0,1-9.49,8.329" fill="#a2bb0c"/>
    <path id="Caminho_719" data-name="Caminho 719" d="M332.774,571.823V518.814a1.473,1.473,0,0,1,1.473-1.473h26.895a2.945,2.945,0,0,0,2.946-2.945V497.889a2.945,2.945,0,0,0-2.941-2.945l-26.729-.042a1.473,1.473,0,0,1-1.47-1.472l-.006-14.193a11.047,11.047,0,0,0-11.05-11.042l-14.5.007a2.946,2.946,0,0,0-2.945,2.937l-.287,109.341c0,13.761,8.243,20.91,22.858,20.91h34.124a2.946,2.946,0,0,0,2.946-2.948l-.021-22.2a2.945,2.945,0,0,0-2.946-2.943H334.247a1.472,1.472,0,0,1-1.473-1.473" fill="#e1edd8"/>
    <path id="Caminho_720" data-name="Caminho 720" d="M722.768,565.312a2.933,2.933,0,0,0-3.987.591c-6.537,8.4-14.633,12.028-23.991,12.028-16.095,0-28.136-12.7-28.136-29.019,0-16.646,11.711-29.561,28.577-29.561a29.291,29.291,0,0,1,22.29,10.577,2.969,2.969,0,0,0,3.863.608L738.1,519.825a2.935,2.935,0,0,0,.824-4.173,54.108,54.108,0,0,0-44.139-22.14c-31.206,0-56.061,24.084-56.061,54.849,0,30.664,23.871,54.967,55.408,54.967,17.4,0,34.706-7.941,45.152-22.982a2.94,2.94,0,0,0-.757-4.079Z" fill="#e1edd8"/>
    <path id="Caminho_721" data-name="Caminho 721" d="M281.908,494.508H244.347a67.012,67.012,0,0,0-48.828,21.03,1.213,1.213,0,0,0,.888,2.041h17.484a.93.93,0,0,1,.929.93v35.146a.931.931,0,0,0,.93.93h15.738a.929.929,0,0,1,.93.93v17.33a.93.93,0,0,1-.93.93H215.336a.93.93,0,0,0-.93.93V581.4a.929.929,0,0,1-.93.93h-8.132a.93.93,0,0,1-.93-.93v-8.132a.93.93,0,0,1,.93-.929H212.3a.93.93,0,0,0,.93-.93V556.891a.93.93,0,0,0-.93-.93H179.306a2.058,2.058,0,0,0-2.055,1.942q-.108,1.891-.11,3.811v37.56a3.464,3.464,0,0,0,3.464,3.464h37.561a67.206,67.206,0,0,0,67.205-67.206v-37.56A3.463,3.463,0,0,0,281.908,494.508Z" fill="#9bb30d"/>
  </g>
</svg>
